<svg xmlns="http://www.w3.org/2000/svg" xmlns:xlink="http://www.w3.org/1999/xlink" width="500" zoomAndPan="magnify" viewBox="0 0 375 149.999998" height="200" preserveAspectRatio="xMidYMid meet" version="1.0"><defs><clipPath id="1193f3c9f0"><path d="M 82.988281 43.398438 L 156.488281 43.398438 L 156.488281 116.898438 L 82.988281 116.898438 Z M 82.988281 43.398438 " clip-rule="nonzero"/></clipPath><clipPath id="e94b6aab89"><path d="M 215.777344 43.398438 L 289.277344 43.398438 L 289.277344 116.898438 L 215.777344 116.898438 Z M 215.777344 43.398438 " clip-rule="nonzero"/></clipPath></defs><path fill="#f1efe7" d="M 101.859375 2.742188 C 78.34375 0 56.003906 3.722656 39.542969 18.027344 C 23.28125 32.136719 12.894531 56.433594 11.328125 78.773438 C 9.757812 100.917969 17.011719 120.902344 40.328125 133.835938 C 63.84375 146.769531 103.621094 152.648438 131.839844 144.027344 C 160.253906 135.601562 177.300781 112.476562 182.394531 90.335938 C 187.492188 67.996094 180.632812 46.441406 165.152344 30.960938 C 149.476562 15.285156 125.175781 5.683594 101.859375 2.742188 Z M 101.859375 2.742188 " fill-opacity="1" fill-rule="evenodd"/><path fill="#f1efe7" d="M 279.601562 2.742188 C 256.085938 0 233.75 3.722656 217.289062 18.027344 C 201.023438 32.136719 190.640625 56.433594 189.070312 78.773438 C 187.503906 100.917969 194.753906 120.902344 218.074219 133.835938 C 241.585938 146.769531 281.367188 152.648438 309.582031 144.027344 C 337.996094 135.601562 355.042969 112.476562 360.140625 90.335938 C 365.234375 67.996094 358.375 46.441406 342.894531 30.960938 C 327.21875 15.285156 302.921875 5.683594 279.601562 2.742188 Z M 279.601562 2.742188 " fill-opacity="1" fill-rule="evenodd"/><g clip-path="url(#1193f3c9f0)"><path fill="#333333" d="M 156.324219 80.066406 C 156.324219 81.269531 156.265625 82.464844 156.148438 83.660156 C 156.03125 84.855469 155.855469 86.042969 155.621094 87.21875 C 155.386719 88.398438 155.09375 89.5625 154.746094 90.710938 C 154.398438 91.859375 153.992188 92.988281 153.535156 94.097656 C 153.074219 95.207031 152.5625 96.292969 151.996094 97.351562 C 151.429688 98.410156 150.8125 99.441406 150.144531 100.4375 C 149.476562 101.4375 148.765625 102.402344 148.003906 103.328125 C 147.238281 104.257812 146.433594 105.144531 145.585938 105.996094 C 144.734375 106.84375 143.847656 107.648438 142.917969 108.410156 C 141.992188 109.171875 141.027344 109.886719 140.027344 110.554688 C 139.03125 111.222656 138 111.839844 136.941406 112.40625 C 135.882812 112.972656 134.800781 113.484375 133.691406 113.945312 C 132.578125 114.402344 131.449219 114.808594 130.300781 115.15625 C 129.152344 115.503906 127.988281 115.796875 126.8125 116.03125 C 125.632812 116.265625 124.445312 116.441406 123.25 116.558594 C 122.054688 116.675781 120.859375 116.734375 119.65625 116.734375 C 118.457031 116.734375 117.257812 116.675781 116.0625 116.558594 C 114.867188 116.441406 113.679688 116.265625 112.503906 116.03125 C 111.324219 115.796875 110.164062 115.503906 109.011719 115.15625 C 107.863281 114.808594 106.734375 114.402344 105.625 113.945312 C 104.515625 113.484375 103.429688 112.972656 102.371094 112.40625 C 101.3125 111.839844 100.285156 111.222656 99.285156 110.554688 C 98.289062 109.886719 97.324219 109.171875 96.394531 108.410156 C 95.46875 107.648438 94.578125 106.84375 93.730469 105.996094 C 92.878906 105.144531 92.074219 104.257812 91.3125 103.328125 C 90.550781 102.402344 89.835938 101.4375 89.167969 100.4375 C 88.5 99.441406 87.886719 98.410156 87.320312 97.351562 C 86.753906 96.292969 86.238281 95.207031 85.78125 94.097656 C 85.320312 92.988281 84.917969 91.859375 84.566406 90.710938 C 84.21875 89.5625 83.929688 88.398438 83.695312 87.21875 C 83.460938 86.042969 83.285156 84.855469 83.164062 83.660156 C 83.046875 82.464844 82.988281 81.269531 82.988281 80.066406 C 82.988281 78.867188 83.046875 77.667969 83.164062 76.472656 C 83.285156 75.277344 83.460938 74.089844 83.695312 72.914062 C 83.929688 71.734375 84.21875 70.570312 84.566406 69.421875 C 84.917969 68.273438 85.320312 67.144531 85.78125 66.035156 C 86.238281 64.925781 86.753906 63.839844 87.320312 62.78125 C 87.886719 61.722656 88.5 60.695312 89.167969 59.695312 C 89.835938 58.695312 90.550781 57.734375 91.3125 56.804688 C 92.074219 55.875 92.878906 54.988281 93.730469 54.140625 C 94.578125 53.289062 95.46875 52.484375 96.394531 51.722656 C 97.324219 50.960938 98.289062 50.246094 99.285156 49.578125 C 100.285156 48.910156 101.3125 48.292969 102.371094 47.730469 C 103.429688 47.164062 104.515625 46.648438 105.625 46.191406 C 106.734375 45.730469 107.863281 45.328125 109.011719 44.976562 C 110.164062 44.628906 111.324219 44.339844 112.503906 44.105469 C 113.679688 43.871094 114.867188 43.695312 116.0625 43.574219 C 117.257812 43.457031 118.457031 43.398438 119.65625 43.398438 C 120.859375 43.398438 122.054688 43.457031 123.25 43.574219 C 124.445312 43.695312 125.632812 43.871094 126.8125 44.105469 C 127.988281 44.339844 129.152344 44.628906 130.300781 44.976562 C 131.449219 45.328125 132.578125 45.730469 133.691406 46.191406 C 134.800781 46.648438 135.882812 47.164062 136.941406 47.730469 C 138 48.292969 139.03125 48.910156 140.027344 49.578125 C 141.027344 50.246094 141.992188 50.960938 142.917969 51.722656 C 143.847656 52.484375 144.734375 53.289062 145.585938 54.140625 C 146.433594 54.988281 147.238281 55.875 148.003906 56.804688 C 148.765625 57.734375 149.476562 58.695312 150.144531 59.695312 C 150.8125 60.695312 151.429688 61.722656 151.996094 62.78125 C 152.5625 63.839844 153.074219 64.925781 153.535156 66.035156 C 153.992188 67.144531 154.398438 68.273438 154.746094 69.421875 C 155.09375 70.570312 155.386719 71.734375 155.621094 72.914062 C 155.855469 74.089844 156.03125 75.277344 156.148438 76.472656 C 156.265625 77.667969 156.324219 78.867188 156.324219 80.066406 Z M 156.324219 80.066406 " fill-opacity="1" fill-rule="nonzero"/></g><g clip-path="url(#e94b6aab89)"><path fill="#333333" d="M 289.113281 80.066406 C 289.113281 81.269531 289.054688 82.464844 288.9375 83.660156 C 288.820312 84.855469 288.644531 86.042969 288.410156 87.21875 C 288.175781 88.398438 287.882812 89.5625 287.535156 90.710938 C 287.183594 91.859375 286.78125 92.988281 286.320312 94.097656 C 285.863281 95.207031 285.347656 96.292969 284.785156 97.351562 C 284.21875 98.410156 283.601562 99.441406 282.933594 100.4375 C 282.265625 101.4375 281.550781 102.402344 280.789062 103.328125 C 280.027344 104.257812 279.222656 105.144531 278.375 105.996094 C 277.523438 106.84375 276.636719 107.648438 275.707031 108.410156 C 274.777344 109.171875 273.816406 109.886719 272.816406 110.554688 C 271.816406 111.222656 270.789062 111.839844 269.730469 112.40625 C 268.671875 112.972656 267.585938 113.484375 266.476562 113.945312 C 265.367188 114.402344 264.238281 114.808594 263.089844 115.15625 C 261.941406 115.503906 260.777344 115.796875 259.597656 116.03125 C 258.421875 116.265625 257.234375 116.441406 256.039062 116.558594 C 254.84375 116.675781 253.644531 116.734375 252.445312 116.734375 C 251.242188 116.734375 250.046875 116.675781 248.851562 116.558594 C 247.65625 116.441406 246.46875 116.265625 245.292969 116.03125 C 244.113281 115.796875 242.949219 115.503906 241.800781 115.15625 C 240.652344 114.808594 239.523438 114.402344 238.414062 113.945312 C 237.304688 113.484375 236.21875 112.972656 235.160156 112.40625 C 234.101562 111.839844 233.070312 111.222656 232.074219 110.554688 C 231.074219 109.886719 230.113281 109.171875 229.183594 108.410156 C 228.253906 107.648438 227.367188 106.84375 226.515625 105.996094 C 225.667969 105.144531 224.863281 104.257812 224.101562 103.328125 C 223.339844 102.402344 222.625 101.4375 221.957031 100.4375 C 221.289062 99.441406 220.671875 98.410156 220.105469 97.351562 C 219.539062 96.292969 219.027344 95.207031 218.566406 94.097656 C 218.109375 92.988281 217.703125 91.859375 217.355469 90.710938 C 217.007812 89.5625 216.714844 88.398438 216.480469 87.21875 C 216.246094 86.042969 216.070312 84.855469 215.953125 83.660156 C 215.835938 82.464844 215.777344 81.269531 215.777344 80.066406 C 215.777344 78.867188 215.835938 77.667969 215.953125 76.472656 C 216.070312 75.277344 216.246094 74.089844 216.480469 72.914062 C 216.714844 71.734375 217.007812 70.570312 217.355469 69.421875 C 217.703125 68.273438 218.109375 67.144531 218.566406 66.035156 C 219.027344 64.925781 219.539062 63.839844 220.105469 62.78125 C 220.671875 61.722656 221.289062 60.695312 221.957031 59.695312 C 222.625 58.695312 223.339844 57.734375 224.101562 56.804688 C 224.863281 55.875 225.667969 54.988281 226.515625 54.140625 C 227.367188 53.289062 228.253906 52.484375 229.183594 51.722656 C 230.113281 50.960938 231.074219 50.246094 232.074219 49.578125 C 233.070312 48.910156 234.101562 48.292969 235.160156 47.730469 C 236.21875 47.164062 237.304688 46.648438 238.414062 46.191406 C 239.523438 45.730469 240.652344 45.328125 241.800781 44.976562 C 242.949219 44.628906 244.113281 44.339844 245.292969 44.105469 C 246.46875 43.871094 247.65625 43.695312 248.851562 43.574219 C 250.046875 43.457031 251.242188 43.398438 252.445312 43.398438 C 253.644531 43.398438 254.84375 43.457031 256.039062 43.574219 C 257.234375 43.695312 258.421875 43.871094 259.597656 44.105469 C 260.777344 44.339844 261.941406 44.628906 263.089844 44.976562 C 264.238281 45.328125 265.367188 45.730469 266.476562 46.191406 C 267.585938 46.648438 268.671875 47.164062 269.730469 47.730469 C 270.789062 48.292969 271.816406 48.910156 272.816406 49.578125 C 273.816406 50.246094 274.777344 50.960938 275.707031 51.722656 C 276.636719 52.484375 277.523438 53.289062 278.375 54.140625 C 279.222656 54.988281 280.027344 55.875 280.789062 56.804688 C 281.550781 57.734375 282.265625 58.695312 282.933594 59.695312 C 283.601562 60.695312 284.21875 61.722656 284.785156 62.78125 C 285.347656 63.839844 285.863281 64.925781 286.320312 66.035156 C 286.78125 67.144531 287.183594 68.273438 287.535156 69.421875 C 287.882812 70.570312 288.175781 71.734375 288.410156 72.914062 C 288.644531 74.089844 288.820312 75.277344 288.9375 76.472656 C 289.054688 77.667969 289.113281 78.867188 289.113281 80.066406 Z M 289.113281 80.066406 " fill-opacity="1" fill-rule="nonzero"/></g></svg>