<svg xmlns="http://www.w3.org/2000/svg" xmlns:xlink="http://www.w3.org/1999/xlink" width="500" zoomAndPan="magnify" viewBox="0 0 375 149.999998" height="200" preserveAspectRatio="xMidYMid meet" version="1.0"><defs><g/><clipPath id="6317ec3087"><path d="M 118.246094 55 L 197 55 L 197 121 L 118.246094 121 Z M 118.246094 55 " clip-rule="nonzero"/></clipPath><clipPath id="f522216d43"><path d="M 71.601562 73.933594 L 104.992188 73.933594 L 104.992188 107 L 71.601562 107 Z M 71.601562 73.933594 " clip-rule="nonzero"/></clipPath><clipPath id="768ad2a256"><path d="M 130.863281 73.933594 L 164 73.933594 L 164 107 L 130.863281 107 Z M 130.863281 73.933594 " clip-rule="nonzero"/></clipPath></defs><g fill="#005163" fill-opacity="1"><g transform="translate(6.000107, 122.184779)"><g><path d="M 10.265625 -58.484375 L 10.265625 -70.921875 C 10.335938 -79.660156 12.390625 -86.648438 16.421875 -91.890625 C 20.453125 -97.140625 26.035156 -99.765625 33.171875 -99.765625 C 36.210938 -99.765625 39.117188 -99.328125 41.890625 -98.453125 C 44.671875 -97.578125 46.671875 -96.679688 47.890625 -95.765625 L 49.828125 -94.515625 L 42.75 -80.265625 C 40.925781 -81.328125 38.914062 -81.859375 36.71875 -81.859375 C 34.207031 -81.859375 32.53125 -81.003906 31.6875 -79.296875 C 30.851562 -77.585938 30.4375 -74.601562 30.4375 -70.34375 L 30.4375 -58.484375 L 43.890625 -58.484375 L 43.890625 -43.09375 L 30.4375 -43.09375 L 30.4375 0 L 10.265625 0 L 10.265625 -43.09375 L 1.828125 -43.09375 L 1.828125 -58.484375 Z M 10.265625 -58.484375 "/></g></g></g><g fill="#005163" fill-opacity="1"><g transform="translate(38.039591, 122.184779)"><g/></g></g><g fill="#005163" fill-opacity="1"><g transform="translate(58.445136, 122.184779)"><g/></g></g><g fill="#005163" fill-opacity="1"><g transform="translate(78.850681, 122.184779)"><g/></g></g><g fill="#005163" fill-opacity="1"><g transform="translate(99.25623, 122.184779)"><g/></g></g><g fill="#005163" fill-opacity="1"><g transform="translate(119.661772, 122.184779)"><g/></g></g><g fill="#005163" fill-opacity="1"><g transform="translate(140.067314, 122.184779)"><g/></g></g><g fill="#005163" fill-opacity="1"><g transform="translate(160.472856, 122.184779)"><g/></g></g><g fill="#005163" fill-opacity="1"><g transform="translate(180.888678, 122.184779)"><g><path d="M 37.96875 -43.671875 C 34.164062 -43.671875 30.894531 -42.265625 28.15625 -39.453125 C 25.425781 -36.640625 24.0625 -33.253906 24.0625 -29.296875 C 24.0625 -25.273438 25.425781 -21.859375 28.15625 -19.046875 C 30.894531 -16.234375 34.164062 -14.828125 37.96875 -14.828125 C 39.789062 -14.828125 41.519531 -15.050781 43.15625 -15.5 C 44.789062 -15.957031 45.988281 -16.414062 46.75 -16.875 L 47.765625 -17.5625 L 54.609375 -3.53125 C 54.078125 -3.15625 53.335938 -2.679688 52.390625 -2.109375 C 51.441406 -1.535156 49.273438 -0.757812 45.890625 0.21875 C 42.503906 1.207031 38.875 1.703125 35 1.703125 C 26.414062 1.703125 18.875 -1.316406 12.375 -7.359375 C 5.875 -13.398438 2.625 -20.640625 2.625 -29.078125 C 2.625 -37.585938 5.875 -44.898438 12.375 -51.015625 C 18.875 -57.140625 26.414062 -60.203125 35 -60.203125 C 38.875 -60.203125 42.445312 -59.742188 45.71875 -58.828125 C 48.988281 -57.921875 51.304688 -57.007812 52.671875 -56.09375 L 54.609375 -54.734375 L 47.765625 -40.9375 C 45.265625 -42.757812 42 -43.671875 37.96875 -43.671875 Z M 37.96875 -43.671875 "/></g></g></g><g fill="#005163" fill-opacity="1"><g transform="translate(226.146932, 122.184779)"><g><path d="M 25.875 -58.484375 L 25.875 -30.671875 C 25.875 -24.890625 26.75 -20.78125 28.5 -18.34375 C 30.25 -15.914062 33.210938 -14.703125 37.390625 -14.703125 C 41.578125 -14.703125 44.539062 -15.914062 46.28125 -18.34375 C 48.03125 -20.78125 48.90625 -24.890625 48.90625 -30.671875 L 48.90625 -58.484375 L 69.09375 -58.484375 L 69.09375 -25.765625 C 69.09375 -16.035156 66.5625 -9.023438 61.5 -4.734375 C 56.445312 -0.441406 48.410156 1.703125 37.390625 1.703125 C 26.367188 1.703125 18.332031 -0.441406 13.28125 -4.734375 C 8.226562 -9.023438 5.703125 -16.035156 5.703125 -25.765625 L 5.703125 -58.484375 Z M 25.875 -58.484375 "/></g></g></g><g fill="#005163" fill-opacity="1"><g transform="translate(290.215732, 122.184779)"><g><path d="M 32.265625 -60.203125 C 35.609375 -60.203125 38.914062 -59.820312 42.1875 -59.0625 C 45.457031 -58.300781 47.890625 -57.539062 49.484375 -56.78125 L 51.875 -55.640625 L 45.265625 -42.40625 C 40.703125 -44.84375 36.367188 -46.0625 32.265625 -46.0625 C 29.984375 -46.0625 28.367188 -45.8125 27.421875 -45.3125 C 26.472656 -44.820312 26 -43.894531 26 -42.53125 C 26 -42.226562 26.035156 -41.921875 26.109375 -41.609375 C 26.179688 -41.304688 26.332031 -41.019531 26.5625 -40.75 C 26.789062 -40.488281 27 -40.265625 27.1875 -40.078125 C 27.382812 -39.890625 27.707031 -39.679688 28.15625 -39.453125 C 28.613281 -39.222656 28.972656 -39.050781 29.234375 -38.9375 C 29.503906 -38.820312 29.941406 -38.648438 30.546875 -38.421875 C 31.160156 -38.191406 31.617188 -38.019531 31.921875 -37.90625 C 32.222656 -37.789062 32.734375 -37.617188 33.453125 -37.390625 C 34.179688 -37.171875 34.734375 -37.019531 35.109375 -36.9375 C 37.472656 -36.257812 39.523438 -35.5 41.265625 -34.65625 C 43.015625 -33.820312 44.859375 -32.679688 46.796875 -31.234375 C 48.734375 -29.796875 50.234375 -27.972656 51.296875 -25.765625 C 52.367188 -23.566406 52.90625 -21.0625 52.90625 -18.25 C 52.90625 -4.945312 43.671875 1.703125 25.203125 1.703125 C 21.015625 1.703125 17.039062 1.054688 13.28125 -0.234375 C 9.519531 -1.523438 6.800781 -2.816406 5.125 -4.109375 L 2.625 -6.15625 L 10.828125 -19.953125 C 11.441406 -19.421875 12.238281 -18.789062 13.21875 -18.0625 C 14.207031 -17.34375 15.992188 -16.351562 18.578125 -15.09375 C 21.171875 -13.84375 23.414062 -13.21875 25.3125 -13.21875 C 29.488281 -13.21875 31.578125 -14.625 31.578125 -17.4375 C 31.578125 -18.726562 31.046875 -19.734375 29.984375 -20.453125 C 28.921875 -21.179688 27.113281 -22 24.5625 -22.90625 C 22.019531 -23.820312 20.023438 -24.660156 18.578125 -25.421875 C 14.929688 -27.328125 12.046875 -29.472656 9.921875 -31.859375 C 7.796875 -34.253906 6.734375 -37.429688 6.734375 -41.390625 C 6.734375 -47.316406 9.03125 -51.929688 13.625 -55.234375 C 18.21875 -58.546875 24.429688 -60.203125 32.265625 -60.203125 Z M 32.265625 -60.203125 "/></g></g></g><g fill="#005163" fill-opacity="1"><g transform="translate(335.587997, 122.184779)"><g><path d="M 19.84375 -24.40625 C 23.488281 -24.40625 26.582031 -23.128906 29.125 -20.578125 C 31.675781 -18.035156 32.953125 -14.9375 32.953125 -11.28125 C 32.953125 -7.707031 31.675781 -4.648438 29.125 -2.109375 C 26.582031 0.429688 23.488281 1.703125 19.84375 1.703125 C 16.269531 1.703125 13.207031 0.429688 10.65625 -2.109375 C 8.113281 -4.648438 6.84375 -7.707031 6.84375 -11.28125 C 6.84375 -14.9375 8.113281 -18.035156 10.65625 -20.578125 C 13.207031 -23.128906 16.269531 -24.40625 19.84375 -24.40625 Z M 19.84375 -24.40625 "/></g></g></g><path fill="#f1efe7" d="M 80.011719 55.789062 C 69.519531 54.5625 59.550781 56.226562 52.207031 62.609375 C 44.949219 68.90625 40.3125 79.746094 39.613281 89.714844 C 38.914062 99.597656 42.148438 108.515625 52.554688 114.285156 C 63.046875 120.058594 80.800781 122.679688 93.390625 118.832031 C 106.070312 115.074219 113.675781 104.753906 115.949219 94.875 C 118.222656 84.90625 115.164062 75.289062 108.253906 68.378906 C 101.261719 61.386719 90.417969 57.101562 80.011719 55.789062 Z M 80.011719 55.789062 " fill-opacity="1" fill-rule="evenodd"/><g clip-path="url(#6317ec3087)"><path fill="#f1efe7" d="M 159.34375 55.789062 C 148.847656 54.5625 138.878906 56.226562 131.535156 62.609375 C 124.277344 68.90625 119.644531 79.746094 118.945312 89.714844 C 118.246094 99.597656 121.480469 108.515625 131.886719 114.285156 C 142.378906 120.058594 160.128906 122.679688 172.71875 118.832031 C 185.398438 115.074219 193.007812 104.753906 195.28125 94.875 C 197.554688 84.90625 194.492188 75.289062 187.585938 68.378906 C 180.589844 61.386719 169.746094 57.101562 159.34375 55.789062 Z M 159.34375 55.789062 " fill-opacity="1" fill-rule="evenodd"/></g><g clip-path="url(#f522216d43)"><path fill="#333333" d="M 104.316406 90.292969 C 104.316406 90.828125 104.289062 91.363281 104.234375 91.894531 C 104.183594 92.429688 104.105469 92.957031 104 93.484375 C 103.894531 94.007812 103.765625 94.527344 103.609375 95.039062 C 103.457031 95.550781 103.273438 96.054688 103.070312 96.550781 C 102.863281 97.046875 102.636719 97.53125 102.382812 98.003906 C 102.132812 98.476562 101.855469 98.933594 101.558594 99.378906 C 101.261719 99.824219 100.941406 100.253906 100.601562 100.667969 C 100.261719 101.082031 99.902344 101.480469 99.523438 101.859375 C 99.144531 102.238281 98.75 102.597656 98.335938 102.9375 C 97.921875 103.277344 97.492188 103.59375 97.046875 103.890625 C 96.601562 104.191406 96.140625 104.464844 95.667969 104.71875 C 95.195312 104.96875 94.710938 105.199219 94.21875 105.402344 C 93.722656 105.609375 93.21875 105.789062 92.707031 105.945312 C 92.191406 106.101562 91.675781 106.230469 91.148438 106.335938 C 90.625 106.4375 90.09375 106.515625 89.5625 106.570312 C 89.027344 106.621094 88.492188 106.648438 87.957031 106.648438 C 87.421875 106.648438 86.886719 106.621094 86.355469 106.570312 C 85.820312 106.515625 85.292969 106.4375 84.765625 106.335938 C 84.242188 106.230469 83.722656 106.101562 83.210938 105.945312 C 82.695312 105.789062 82.191406 105.609375 81.699219 105.402344 C 81.203125 105.199219 80.71875 104.96875 80.246094 104.71875 C 79.773438 104.464844 79.316406 104.191406 78.871094 103.890625 C 78.425781 103.59375 77.996094 103.277344 77.582031 102.9375 C 77.167969 102.597656 76.769531 102.238281 76.390625 101.859375 C 76.011719 101.480469 75.652344 101.082031 75.3125 100.667969 C 74.972656 100.253906 74.65625 99.824219 74.355469 99.378906 C 74.058594 98.933594 73.785156 98.476562 73.53125 98.003906 C 73.277344 97.53125 73.050781 97.046875 72.84375 96.550781 C 72.640625 96.054688 72.460938 95.550781 72.304688 95.039062 C 72.148438 94.527344 72.019531 94.007812 71.914062 93.484375 C 71.808594 92.957031 71.730469 92.429688 71.679688 91.894531 C 71.625 91.363281 71.601562 90.828125 71.601562 90.292969 C 71.601562 89.753906 71.625 89.222656 71.679688 88.6875 C 71.730469 88.15625 71.808594 87.625 71.914062 87.101562 C 72.019531 86.574219 72.148438 86.054688 72.304688 85.542969 C 72.460938 85.03125 72.640625 84.527344 72.84375 84.03125 C 73.050781 83.535156 73.277344 83.054688 73.53125 82.582031 C 73.785156 82.109375 74.058594 81.648438 74.355469 81.203125 C 74.65625 80.757812 74.972656 80.328125 75.3125 79.914062 C 75.652344 79.5 76.011719 79.105469 76.390625 78.726562 C 76.769531 78.347656 77.167969 77.988281 77.582031 77.648438 C 77.996094 77.308594 78.425781 76.988281 78.871094 76.691406 C 79.316406 76.394531 79.773438 76.117188 80.246094 75.867188 C 80.71875 75.613281 81.203125 75.382812 81.699219 75.179688 C 82.191406 74.972656 82.695312 74.792969 83.210938 74.636719 C 83.722656 74.484375 84.242188 74.351562 84.765625 74.25 C 85.292969 74.144531 85.820312 74.066406 86.355469 74.011719 C 86.886719 73.960938 87.421875 73.933594 87.957031 73.933594 C 88.492188 73.933594 89.027344 73.960938 89.5625 74.011719 C 90.09375 74.066406 90.625 74.144531 91.148438 74.25 C 91.675781 74.351562 92.191406 74.484375 92.707031 74.636719 C 93.21875 74.792969 93.722656 74.972656 94.21875 75.179688 C 94.710938 75.382812 95.195312 75.613281 95.667969 75.867188 C 96.140625 76.117188 96.601562 76.394531 97.046875 76.691406 C 97.492188 76.988281 97.921875 77.308594 98.335938 77.648438 C 98.75 77.988281 99.144531 78.347656 99.523438 78.726562 C 99.902344 79.105469 100.261719 79.5 100.601562 79.914062 C 100.941406 80.328125 101.261719 80.757812 101.558594 81.203125 C 101.855469 81.648438 102.132812 82.109375 102.382812 82.582031 C 102.636719 83.054688 102.863281 83.535156 103.070312 84.03125 C 103.273438 84.527344 103.457031 85.03125 103.609375 85.542969 C 103.765625 86.054688 103.894531 86.574219 104 87.101562 C 104.105469 87.625 104.183594 88.15625 104.234375 88.6875 C 104.289062 89.222656 104.316406 89.753906 104.316406 90.292969 Z M 104.316406 90.292969 " fill-opacity="1" fill-rule="nonzero"/></g><g clip-path="url(#768ad2a256)"><path fill="#333333" d="M 163.582031 90.292969 C 163.582031 90.828125 163.554688 91.363281 163.5 91.894531 C 163.449219 92.429688 163.371094 92.957031 163.265625 93.484375 C 163.160156 94.007812 163.03125 94.527344 162.875 95.039062 C 162.71875 95.550781 162.539062 96.054688 162.335938 96.550781 C 162.128906 97.046875 161.902344 97.53125 161.648438 98.003906 C 161.394531 98.476562 161.121094 98.933594 160.824219 99.378906 C 160.527344 99.824219 160.207031 100.253906 159.867188 100.667969 C 159.527344 101.082031 159.167969 101.480469 158.789062 101.859375 C 158.410156 102.238281 158.015625 102.597656 157.601562 102.9375 C 157.1875 103.277344 156.753906 103.59375 156.308594 103.890625 C 155.863281 104.191406 155.40625 104.464844 154.933594 104.71875 C 154.460938 104.96875 153.976562 105.199219 153.480469 105.402344 C 152.988281 105.609375 152.484375 105.789062 151.972656 105.945312 C 151.457031 106.101562 150.9375 106.230469 150.414062 106.335938 C 149.886719 106.4375 149.359375 106.515625 148.824219 106.570312 C 148.292969 106.621094 147.757812 106.648438 147.222656 106.648438 C 146.6875 106.648438 146.152344 106.621094 145.621094 106.570312 C 145.085938 106.515625 144.558594 106.4375 144.03125 106.335938 C 143.507812 106.230469 142.988281 106.101562 142.472656 105.945312 C 141.960938 105.789062 141.457031 105.609375 140.964844 105.402344 C 140.46875 105.199219 139.984375 104.96875 139.511719 104.71875 C 139.039062 104.464844 138.582031 104.191406 138.136719 103.890625 C 137.691406 103.59375 137.257812 103.277344 136.84375 102.9375 C 136.429688 102.597656 136.035156 102.238281 135.65625 101.859375 C 135.277344 101.480469 134.917969 101.082031 134.578125 100.667969 C 134.238281 100.253906 133.917969 99.824219 133.621094 99.378906 C 133.324219 98.933594 133.050781 98.476562 132.796875 98.003906 C 132.542969 97.53125 132.316406 97.046875 132.109375 96.550781 C 131.90625 96.054688 131.726562 95.550781 131.570312 95.039062 C 131.414062 94.527344 131.285156 94.007812 131.179688 93.484375 C 131.074219 92.957031 130.996094 92.429688 130.945312 91.894531 C 130.890625 91.363281 130.863281 90.828125 130.863281 90.292969 C 130.863281 89.753906 130.890625 89.222656 130.945312 88.6875 C 130.996094 88.15625 131.074219 87.625 131.179688 87.101562 C 131.285156 86.574219 131.414062 86.054688 131.570312 85.542969 C 131.726562 85.03125 131.90625 84.527344 132.109375 84.03125 C 132.316406 83.535156 132.542969 83.054688 132.796875 82.582031 C 133.050781 82.109375 133.324219 81.648438 133.621094 81.203125 C 133.917969 80.757812 134.238281 80.328125 134.578125 79.914062 C 134.917969 79.5 135.277344 79.105469 135.65625 78.726562 C 136.035156 78.347656 136.429688 77.988281 136.84375 77.648438 C 137.257812 77.308594 137.691406 76.988281 138.136719 76.691406 C 138.582031 76.394531 139.039062 76.117188 139.511719 75.867188 C 139.984375 75.613281 140.46875 75.382812 140.964844 75.179688 C 141.457031 74.972656 141.960938 74.792969 142.472656 74.636719 C 142.988281 74.484375 143.507812 74.351562 144.03125 74.25 C 144.558594 74.144531 145.085938 74.066406 145.621094 74.011719 C 146.152344 73.960938 146.6875 73.933594 147.222656 73.933594 C 147.757812 73.933594 148.292969 73.960938 148.824219 74.011719 C 149.359375 74.066406 149.886719 74.144531 150.414062 74.25 C 150.9375 74.351562 151.457031 74.484375 151.972656 74.636719 C 152.484375 74.792969 152.988281 74.972656 153.480469 75.179688 C 153.976562 75.382812 154.460938 75.613281 154.933594 75.867188 C 155.40625 76.117188 155.863281 76.394531 156.308594 76.691406 C 156.753906 76.988281 157.1875 77.308594 157.601562 77.648438 C 158.015625 77.988281 158.410156 78.347656 158.789062 78.726562 C 159.167969 79.105469 159.527344 79.5 159.867188 79.914062 C 160.207031 80.328125 160.527344 80.757812 160.824219 81.203125 C 161.121094 81.648438 161.394531 82.109375 161.648438 82.582031 C 161.902344 83.054688 162.128906 83.535156 162.335938 84.03125 C 162.539062 84.527344 162.71875 85.03125 162.875 85.542969 C 163.03125 86.054688 163.160156 86.574219 163.265625 87.101562 C 163.371094 87.625 163.449219 88.15625 163.5 88.6875 C 163.554688 89.222656 163.582031 89.753906 163.582031 90.292969 Z M 163.582031 90.292969 " fill-opacity="1" fill-rule="nonzero"/></g></svg>